<mxfile host="Electron" modified="2023-09-06T00:59:52.348Z" agent="Mozilla/5.0 (Windows NT 10.0; Win64; x64) AppleWebKit/537.36 (KHTML, like Gecko) draw.io/21.4.0 Chrome/112.0.5615.204 Electron/24.5.1 Safari/537.36" etag="Rh_c4QpowXsLiiH8j90A" version="21.4.0" type="device">
  <diagram name="Страница 1" id="XVykgL5v5U8a6wjPPW6n">
    <mxGraphModel dx="1219" dy="769" grid="1" gridSize="10" guides="1" tooltips="1" connect="1" arrows="1" fold="1" page="1" pageScale="1" pageWidth="827" pageHeight="1169" math="0" shadow="0">
      <root>
        <mxCell id="0" />
        <mxCell id="1" parent="0" />
        <mxCell id="79cBj75D_zDzxZRpZC3C-3" value="" style="edgeStyle=orthogonalEdgeStyle;rounded=0;orthogonalLoop=1;jettySize=auto;html=1;" edge="1" parent="1" source="79cBj75D_zDzxZRpZC3C-1" target="79cBj75D_zDzxZRpZC3C-2">
          <mxGeometry relative="1" as="geometry" />
        </mxCell>
        <mxCell id="79cBj75D_zDzxZRpZC3C-1" value="Start" style="ellipse;whiteSpace=wrap;html=1;" vertex="1" parent="1">
          <mxGeometry x="320" y="10" width="110" height="70" as="geometry" />
        </mxCell>
        <mxCell id="79cBj75D_zDzxZRpZC3C-5" value="" style="edgeStyle=orthogonalEdgeStyle;rounded=0;orthogonalLoop=1;jettySize=auto;html=1;" edge="1" parent="1" source="79cBj75D_zDzxZRpZC3C-2" target="79cBj75D_zDzxZRpZC3C-4">
          <mxGeometry relative="1" as="geometry" />
        </mxCell>
        <mxCell id="79cBj75D_zDzxZRpZC3C-2" value="string[] array1&lt;br&gt;string[] array2" style="shape=parallelogram;perimeter=parallelogramPerimeter;whiteSpace=wrap;html=1;fixedSize=1;" vertex="1" parent="1">
          <mxGeometry x="315" y="130" width="120" height="60" as="geometry" />
        </mxCell>
        <mxCell id="79cBj75D_zDzxZRpZC3C-7" value="" style="edgeStyle=orthogonalEdgeStyle;rounded=0;orthogonalLoop=1;jettySize=auto;html=1;" edge="1" parent="1" source="79cBj75D_zDzxZRpZC3C-4" target="79cBj75D_zDzxZRpZC3C-6">
          <mxGeometry relative="1" as="geometry" />
        </mxCell>
        <mxCell id="79cBj75D_zDzxZRpZC3C-4" value="string[] array1&lt;br&gt;string[] array2&lt;br&gt;n &amp;lt;= 3&lt;br&gt;count = 0&lt;br&gt;i = 0" style="whiteSpace=wrap;html=1;" vertex="1" parent="1">
          <mxGeometry x="315" y="240" width="120" height="80" as="geometry" />
        </mxCell>
        <mxCell id="79cBj75D_zDzxZRpZC3C-9" value="no" style="edgeStyle=orthogonalEdgeStyle;rounded=0;orthogonalLoop=1;jettySize=auto;html=1;" edge="1" parent="1" source="79cBj75D_zDzxZRpZC3C-6" target="79cBj75D_zDzxZRpZC3C-8">
          <mxGeometry relative="1" as="geometry" />
        </mxCell>
        <mxCell id="79cBj75D_zDzxZRpZC3C-13" value="yes" style="edgeStyle=orthogonalEdgeStyle;rounded=0;orthogonalLoop=1;jettySize=auto;html=1;" edge="1" parent="1" source="79cBj75D_zDzxZRpZC3C-6" target="79cBj75D_zDzxZRpZC3C-12">
          <mxGeometry relative="1" as="geometry" />
        </mxCell>
        <mxCell id="79cBj75D_zDzxZRpZC3C-6" value="i &amp;lt; array.Lenght" style="rhombus;whiteSpace=wrap;html=1;" vertex="1" parent="1">
          <mxGeometry x="320" y="370" width="110" height="80" as="geometry" />
        </mxCell>
        <mxCell id="79cBj75D_zDzxZRpZC3C-11" value="" style="edgeStyle=orthogonalEdgeStyle;rounded=0;orthogonalLoop=1;jettySize=auto;html=1;" edge="1" parent="1" source="79cBj75D_zDzxZRpZC3C-8" target="79cBj75D_zDzxZRpZC3C-10">
          <mxGeometry relative="1" as="geometry" />
        </mxCell>
        <mxCell id="79cBj75D_zDzxZRpZC3C-8" value="Print" style="shape=document;whiteSpace=wrap;html=1;boundedLbl=1;" vertex="1" parent="1">
          <mxGeometry x="505" y="370" width="120" height="80" as="geometry" />
        </mxCell>
        <mxCell id="79cBj75D_zDzxZRpZC3C-10" value="End" style="ellipse;whiteSpace=wrap;html=1;" vertex="1" parent="1">
          <mxGeometry x="670" y="370" width="110" height="80" as="geometry" />
        </mxCell>
        <mxCell id="79cBj75D_zDzxZRpZC3C-15" value="yes" style="edgeStyle=orthogonalEdgeStyle;rounded=0;orthogonalLoop=1;jettySize=auto;html=1;" edge="1" parent="1" source="79cBj75D_zDzxZRpZC3C-12" target="79cBj75D_zDzxZRpZC3C-14">
          <mxGeometry relative="1" as="geometry" />
        </mxCell>
        <mxCell id="79cBj75D_zDzxZRpZC3C-12" value="array1[i].Lenght &amp;lt;= 3" style="rhombus;whiteSpace=wrap;html=1;" vertex="1" parent="1">
          <mxGeometry x="300" y="490" width="150" height="80" as="geometry" />
        </mxCell>
        <mxCell id="79cBj75D_zDzxZRpZC3C-16" style="edgeStyle=orthogonalEdgeStyle;rounded=0;orthogonalLoop=1;jettySize=auto;html=1;entryX=0;entryY=0.5;entryDx=0;entryDy=0;" edge="1" parent="1" source="79cBj75D_zDzxZRpZC3C-14" target="79cBj75D_zDzxZRpZC3C-6">
          <mxGeometry relative="1" as="geometry">
            <Array as="points">
              <mxPoint x="240" y="640" />
              <mxPoint x="240" y="410" />
            </Array>
          </mxGeometry>
        </mxCell>
        <mxCell id="79cBj75D_zDzxZRpZC3C-14" value="i++" style="whiteSpace=wrap;html=1;" vertex="1" parent="1">
          <mxGeometry x="315" y="610" width="120" height="60" as="geometry" />
        </mxCell>
      </root>
    </mxGraphModel>
  </diagram>
</mxfile>
